PathFileType	4	(X/Y/Z)	52_2_20_p1_0-443_filt_butterworth.trc
DataRate	CameraRate	NumFrames	NumMarkers	Units	OrigDataRate	OrigDataStartFrame	OrigNumFrames
40.0	40.0	4	27	m	40.0	0	443
Frame#	Time	RHip			RKnee			RAnkle			RBigToe			RSmallToe			RHeel			LHip			LKnee			LAnkle			LBigToe			LSmallToe			LHeel			Neck			Head			Nose			RShoulder			RElbow			RWrist			RThumb			RIndex			RPinky			LShoulder			LElbow			LWrist			LThumb			LIndex			LPinky			
		X1	Y1	Z1	X2	Y2	Z2	X3	Y3	Z3	X4	Y4	Z4	X5	Y5	Z5	X6	Y6	Z6	X7	Y7	Z7	X8	Y8	Z8	X9	Y9	Z9	X10	Y10	Z10	X11	Y11	Z11	X12	Y12	Z12	X13	Y13	Z13	X14	Y14	Z14	X15	Y15	Z15	X16	Y16	Z16	X17	Y17	Z17	X18	Y18	Z18	X19	Y19	Z19	X20	Y20	Z20	X21	Y21	Z21	X22	Y22	Z22	X23	Y23	Z23	X24	Y24	Z24	X25	Y25	Z25	X26	Y26	Z26	X27	Y27	Z27	
0	0.0	-0.004595128448312086	0.6859348559339078	0.7664332517194108	0.02458801088357776	0.23096499204712284	0.777111090386801	0.017053980457263848	-0.15293750121143765	0.7849731194164277	-0.005728759733369768	-0.13484716527508814	0.583626211420137	0.054973535569828515	-0.15205740224922495	0.6164404078755868	-0.004980536324456708	-0.2341422343866088	0.8600751706899561	-0.20849461884105833	0.6563857126167049	0.7764299470835461	-0.19401589986778622	0.21799231570318062	0.7795806514868673	-0.1722290758911571	-0.15678189672624432	0.7739112389346525	-0.1470022932395001	-0.14949601029374557	0.6083252323104467	-0.20785250816762113	-0.16080813632783994	0.6372310225868394	-0.15324535782042584	-0.21277605671169852	0.7983968215824098	-0.10794149109260912	1.2064283096023165	0.773009069134514	-0.11300533053948691	1.4610783041408042	0.751945436996925	-0.11058999218996302	1.32601533997801	0.702755255363056	0.04110922457838251	1.1224430755822836	0.7632194818755236	0.06016930864076048	0.8810326753212309	0.7260668854474432	-0.06166069552210299	0.6967866112567327	0.6213076046986064	-0.12204213707077603	0.5909358486905381	0.6081745916908728	-0.12113619798805172	0.5809136859766415	0.6080100646046267	-0.09969249847387218	0.581484994495441	0.6077914299620282	-0.2613197437910975	1.1233519768871179	0.7796437169274332	-0.2727977690743994	0.8660251155330234	0.7079915155680292	-0.16313799109351756	0.6822261264061165	0.6261553996602321	-0.08396348443419123	0.6108663077664908	0.5891478090048405	-0.08483498387873557	0.5922895206404444	0.5886645965611257	-0.12878904063243685	0.5738943767595036	0.6345624018444576	
1	0.025	-0.0044842660470968965	0.6864040669541208	0.7673225599682812	0.023505998966485836	0.22879757551951196	0.777260643002604	0.01703462803682427	-0.15296988436689454	0.7850608555441664	-0.0017671792375993185	-0.14028212787008915	0.5894084772571052	0.056957233967081924	-0.14705688823292307	0.6098765790843774	-0.004798445654321576	-0.23481415634715097	0.8606364292994924	-0.20874942946911004	0.6554796554178705	0.7765876543653777	-0.194077391148502	0.21646246113769588	0.7791773540586209	-0.17215059595908905	-0.15694340899317655	0.7736256581436618	-0.14704346397065451	-0.14968842091404463	0.6084798964761808	-0.20792158462256258	-0.1607920401298733	0.6371630660189381	-0.15280000101206723	-0.2142900358436754	0.8006181183085331	-0.10793382204067983	1.2065117657302824	0.7728153280027181	-0.11518522702636486	1.4602255702675417	0.7580515773652206	-0.11060706028940204	1.3298230866152816	0.6892386560558688	0.041131604675283984	1.1224887215957244	0.7631412684905019	0.057093984852576496	0.8796416358581151	0.7249350525958391	-0.061510286462818226	0.6948422243350034	0.6225087346059887	-0.12690798190578317	0.585508308651849	0.6195552211941577	-0.12637122379505444	0.5752427358138446	0.6196263838856384	-0.10251579979202152	0.5781090143382459	0.6148063780326019	-0.25968124918428215	1.1216575114782459	0.7876096915280788	-0.27265369290462493	0.8679630772682476	0.7082866049915799	-0.16248541756426532	0.6820019717299214	0.6264465755536367	-0.08511595675964831	0.6117625282710015	0.5879319749390283	-0.0867438863384739	0.5937405756387673	0.5876014149030595	-0.12894475675891434	0.5738348265994364	0.6348589674222618	
2	0.05	-0.004276149474182478	0.6866491577187004	0.767915741186119	0.022699205264783584	0.22707828717172143	0.7773214867846082	0.017019714329821703	-0.15299972521518365	0.7851403195108392	0.0007700330593636215	-0.1437004094202697	0.593834257826131	0.05817334588386641	-0.14396131635000248	0.6057832140599744	-0.0046596857330980625	-0.23526997133243574	0.8611227434358485	-0.20889888649339053	0.6546589929881665	0.7766713889085943	-0.19413457125790684	0.21521838526461032	0.778874468560375	-0.17198387618290922	-0.15672148185016033	0.7730750453544348	-0.14708590866435958	-0.14968196534277667	0.6085828358552241	-0.2079593710238204	-0.16080751792423736	0.6371668467466105	-0.15243973250036819	-0.2153872114523226	0.8023979308568475	-0.10790866474374991	1.2064245158808784	0.772750714457284	-0.11665753599461887	1.4596443270015027	0.7621790595315331	-0.11041484793878587	1.3317356310035446	0.6814858375796482	0.041141669433946204	1.122520970588	0.7630895131073224	0.05561659384844475	0.8789285951723425	0.7244794731110751	-0.061729845573106096	0.6943641557299359	0.6218784298712181	-0.1300744584764363	0.581983897558243	0.6268894565224333	-0.12964169598887337	0.5715890731106165	0.6271622287193326	-0.10369259482654818	0.576591317151086	0.6177501032722594	-0.2587251891869134	1.1206484840468358	0.7922472792627967	-0.2725448873237623	0.8688625293783885	0.708401899963838	-0.1623665114700418	0.6820129737305047	0.6264961872779922	-0.08552842327506033	0.6118480501586135	0.5872491737325105	-0.08790031702510027	0.5943823384478082	0.5869099952657538	-0.12887269917720007	0.5739637212129453	0.6346129633631191	
3	0.075	-0.003991729958698148	0.6866980165795267	0.7682512779352052	0.02214242364254075	0.22577314770884943	0.7773135304651835	0.017008873164181544	-0.1530272360687064	0.7852119847076934	0.0021237731627940125	-0.14541733674228832	0.5969387969267724	0.05877491552270875	-0.1423937715921809	0.6036756252193822	-0.004560425306579597	-0.23553038157846587	0.8615388525495015	-0.20896030784940223	0.6539310299549265	0.7766911226140572	-0.1941869044868268	0.21424376448055252	0.7786619577073184	-0.17174001093592087	-0.15616292072973986	0.7722914878694815	-0.1471295605954041	-0.14953233201706212	0.608644511416962	-0.20797436271513944	-0.16084551622939455	0.6372244903132769	-0.1521580588294054	-0.21610696717058597	0.803772317825744	-0.10787518827269568	1.2062461170821237	0.7727792536107791	-0.1175021963851226	1.4593062696438333	0.7645498570293505	-0.11005653022671741	1.332172805046964	0.6783670751267276	0.041142893935134595	1.1225413600010103	0.7630610389761823	0.055400431699316965	0.8787165916432824	0.7245507800676176	-0.062216490321705314	0.6949681837453014	0.6199111904018869	-0.13186189806220966	0.580002213358578	0.6309515158159137	-0.131358439747705	0.5695660725432787	0.6313877614277374	-0.1036084592259806	0.5765116737276779	0.6175616962209914	-0.2583305921062274	1.1202059987535806	0.7941491149511779	-0.2724677584828191	0.8689684029633185	0.7083795786059366	-0.1626657514717853	0.6821897362750409	0.6263560857200559	-0.08541294326584997	0.6113274988328459	0.5869780095173462	-0.08844899972701682	0.5943667527602503	0.5865343234251074	-0.12863933821987564	0.574227319545804	0.6339907102809166	
